M48
; DRILL file {KiCad (5.1.6-0)} date Wednesday, December 23, 2020 at 05:29:01 PM
; FORMAT={-:-/ absolute / metric / decimal}
; #@! TF.CreationDate,2020-12-23T17:29:01-08:00
; #@! TF.GenerationSoftware,Kicad,Pcbnew,(5.1.6-0)
; #@! TF.FileFunction,Plated,1,2,PTH
FMAT,2
METRIC
T1C0.500
%
G90
G05
T1
X1.175Y10.25
X1.71Y11.54
X1.71Y8.96
X3.0Y8.425
X4.29Y8.96
X4.825Y10.25
X7.925Y3.25
X8.46Y1.96
X9.75Y1.425
X11.04Y4.54
X11.04Y1.96
X11.575Y3.25
X7.425Y10.25
X7.96Y8.96
X9.25Y8.425
X10.54Y11.54
X10.54Y8.96
X11.075Y10.25
X0.675Y3.25
X1.21Y4.54
X1.21Y1.96
X2.5Y1.425
X3.79Y1.96
X4.325Y3.25
T0
M30
