%TF.GenerationSoftware,KiCad,Pcbnew,(5.1.6-0)*%
%TF.CreationDate,2020-12-23T18:17:54-08:00*%
%TF.ProjectId,loco-rollers-n,6c6f636f-2d72-46f6-9c6c-6572732d6e2e,R1*%
%TF.SameCoordinates,PX8f0d180PY7270e00*%
%TF.FileFunction,Legend,Bot*%
%TF.FilePolarity,Positive*%
%FSLAX46Y46*%
G04 Gerber Fmt 4.6, Leading zero omitted, Abs format (unit mm)*
G04 Created by KiCad (PCBNEW (5.1.6-0)) date 2020-12-23 18:17:54*
%MOMM*%
%LPD*%
G01*
G04 APERTURE LIST*
%ADD10C,0.150000*%
%ADD11C,3.000000*%
%ADD12C,0.900000*%
%ADD13C,0.100000*%
G04 APERTURE END LIST*
D10*
X9845238Y7188096D02*
X9845238Y6616667D01*
X9883333Y6502381D01*
X9959523Y6426191D01*
X10073809Y6388096D01*
X10150000Y6388096D01*
X9083333Y6388096D02*
X9464285Y6388096D01*
X9464285Y7188096D01*
X8359523Y6464286D02*
X8397619Y6426191D01*
X8511904Y6388096D01*
X8588095Y6388096D01*
X8702380Y6426191D01*
X8778571Y6502381D01*
X8816666Y6578572D01*
X8854761Y6730953D01*
X8854761Y6845239D01*
X8816666Y6997620D01*
X8778571Y7073810D01*
X8702380Y7150000D01*
X8588095Y7188096D01*
X8511904Y7188096D01*
X8397619Y7150000D01*
X8359523Y7111905D01*
X7788095Y7188096D02*
X7788095Y6616667D01*
X7826190Y6502381D01*
X7902380Y6426191D01*
X8016666Y6388096D01*
X8092857Y6388096D01*
X7026190Y6388096D02*
X7407142Y6388096D01*
X7407142Y7188096D01*
X6302380Y6464286D02*
X6340476Y6426191D01*
X6454761Y6388096D01*
X6530952Y6388096D01*
X6645238Y6426191D01*
X6721428Y6502381D01*
X6759523Y6578572D01*
X6797619Y6730953D01*
X6797619Y6845239D01*
X6759523Y6997620D01*
X6721428Y7073810D01*
X6645238Y7150000D01*
X6530952Y7188096D01*
X6454761Y7188096D01*
X6340476Y7150000D01*
X6302380Y7111905D01*
X5730952Y7188096D02*
X5730952Y6616667D01*
X5769047Y6502381D01*
X5845238Y6426191D01*
X5959523Y6388096D01*
X6035714Y6388096D01*
X4969047Y6388096D02*
X5350000Y6388096D01*
X5350000Y7188096D01*
X4245238Y6464286D02*
X4283333Y6426191D01*
X4397619Y6388096D01*
X4473809Y6388096D01*
X4588095Y6426191D01*
X4664285Y6502381D01*
X4702380Y6578572D01*
X4740476Y6730953D01*
X4740476Y6845239D01*
X4702380Y6997620D01*
X4664285Y7073810D01*
X4588095Y7150000D01*
X4473809Y7188096D01*
X4397619Y7188096D01*
X4283333Y7150000D01*
X4245238Y7111905D01*
X3673809Y7188096D02*
X3673809Y6616667D01*
X3711904Y6502381D01*
X3788095Y6426191D01*
X3902380Y6388096D01*
X3978571Y6388096D01*
X2911904Y6388096D02*
X3292857Y6388096D01*
X3292857Y7188096D01*
X2188095Y6464286D02*
X2226190Y6426191D01*
X2340476Y6388096D01*
X2416666Y6388096D01*
X2530952Y6426191D01*
X2607142Y6502381D01*
X2645238Y6578572D01*
X2683333Y6730953D01*
X2683333Y6845239D01*
X2645238Y6997620D01*
X2607142Y7073810D01*
X2530952Y7150000D01*
X2416666Y7188096D01*
X2340476Y7188096D01*
X2226190Y7150000D01*
X2188095Y7111905D01*
X8035714Y5221429D02*
X8035714Y4688096D01*
X8226190Y5526191D02*
X8416666Y4954762D01*
X7921428Y4954762D01*
X7692857Y4688096D02*
X7273809Y5221429D01*
X7692857Y5221429D02*
X7273809Y4688096D01*
X6359523Y4688096D02*
X6359523Y5488096D01*
X6092857Y4916667D01*
X5826190Y5488096D01*
X5826190Y4688096D01*
X5483333Y5411905D02*
X5445238Y5450000D01*
X5369047Y5488096D01*
X5178571Y5488096D01*
X5102380Y5450000D01*
X5064285Y5411905D01*
X5026190Y5335715D01*
X5026190Y5259524D01*
X5064285Y5145239D01*
X5521428Y4688096D01*
X5026190Y4688096D01*
X4683333Y4764286D02*
X4645238Y4726191D01*
X4683333Y4688096D01*
X4721428Y4726191D01*
X4683333Y4764286D01*
X4683333Y4688096D01*
X3921428Y5488096D02*
X4302380Y5488096D01*
X4340476Y5107143D01*
X4302380Y5145239D01*
X4226190Y5183334D01*
X4035714Y5183334D01*
X3959523Y5145239D01*
X3921428Y5107143D01*
X3883333Y5030953D01*
X3883333Y4840477D01*
X3921428Y4764286D01*
X3959523Y4726191D01*
X4035714Y4688096D01*
X4226190Y4688096D01*
X4302380Y4726191D01*
X4340476Y4764286D01*
%LPC*%
D11*
%TO.C,H1*%
X3000000Y10250000D03*
D12*
X1710000Y11540000D03*
X4825000Y10250000D03*
X4290000Y8960000D03*
X3000000Y8425000D03*
X1710000Y8960000D03*
X1175000Y10250000D03*
D13*
G36*
X3012720Y7750535D02*
G01*
X2996686Y7750423D01*
X2984474Y7750636D01*
X2806350Y7758102D01*
X2806360Y7758336D01*
X2804608Y7758412D01*
X2804597Y7758182D01*
X2798692Y7758470D01*
X2784730Y7759543D01*
X2768730Y7761225D01*
X2752789Y7762676D01*
X2740654Y7764080D01*
X2564087Y7788895D01*
X2562351Y7789145D01*
X2556481Y7790012D01*
X2542741Y7792435D01*
X2527035Y7795659D01*
X2511246Y7798671D01*
X2499309Y7801252D01*
X2326007Y7843178D01*
X2324297Y7843598D01*
X2318539Y7845034D01*
X2305098Y7848787D01*
X2289775Y7853531D01*
X2274376Y7858063D01*
X2262744Y7861798D01*
X2094359Y7920435D01*
X2092731Y7921008D01*
X2087141Y7922998D01*
X2074096Y7928058D01*
X2059325Y7934268D01*
X2044429Y7940286D01*
X2033214Y7945139D01*
X1871356Y8019927D01*
X1869755Y8020674D01*
X1864386Y8023201D01*
X1851943Y8029487D01*
X1837856Y8037104D01*
X1823594Y8044560D01*
X1812910Y8050482D01*
X1659139Y8140700D01*
X1659324Y8141015D01*
X1657806Y8141881D01*
X1657633Y8141591D01*
X1652552Y8144619D01*
X1640731Y8152119D01*
X1627380Y8161125D01*
X1613999Y8169881D01*
X1603942Y8176819D01*
X1459693Y8281622D01*
X1458309Y8282634D01*
X1453532Y8286155D01*
X1442500Y8294774D01*
X1430135Y8305004D01*
X1417629Y8315059D01*
X1408299Y8322943D01*
X1274965Y8441322D01*
X1273658Y8442490D01*
X1269248Y8446461D01*
X1259142Y8456086D01*
X1247850Y8467458D01*
X1236363Y8478706D01*
X1227844Y8487466D01*
X1106709Y8618281D01*
X1106963Y8618516D01*
X1105786Y8619831D01*
X1105514Y8619582D01*
X1101519Y8623957D01*
X1092393Y8634529D01*
X1082256Y8646959D01*
X1071930Y8659265D01*
X1064312Y8668808D01*
X956511Y8810830D01*
X955476Y8812203D01*
X951921Y8816954D01*
X943855Y8828387D01*
X934976Y8841751D01*
X925904Y8855001D01*
X919252Y8865244D01*
X825824Y9017109D01*
X824924Y9018585D01*
X821850Y9023660D01*
X814945Y9035813D01*
X807398Y9050006D01*
X799676Y9064053D01*
X794053Y9074901D01*
X715900Y9235141D01*
X716381Y9235376D01*
X715634Y9236935D01*
X715146Y9236701D01*
X712590Y9242033D01*
X706886Y9254840D01*
X700764Y9269694D01*
X694450Y9284426D01*
X689913Y9295770D01*
X627762Y9462889D01*
X627166Y9464508D01*
X625136Y9470084D01*
X620720Y9483358D01*
X616090Y9498696D01*
X611229Y9514019D01*
X607821Y9525750D01*
X562275Y9698136D01*
X561837Y9699818D01*
X560361Y9705566D01*
X557265Y9719192D01*
X554150Y9734927D01*
X550811Y9750635D01*
X548564Y9762642D01*
X520057Y9938650D01*
X519785Y9940365D01*
X518877Y9946229D01*
X517126Y9960088D01*
X515559Y9976066D01*
X513770Y9992023D01*
X512706Y10004184D01*
X501511Y10182116D01*
X501840Y10182137D01*
X501749Y10183875D01*
X501408Y10183856D01*
X501077Y10189758D01*
X500685Y10203757D01*
X500685Y10219782D01*
X500461Y10235872D01*
X500589Y10248077D01*
X506811Y10426249D01*
X507054Y10426241D01*
X507133Y10427995D01*
X506879Y10428006D01*
X507126Y10433915D01*
X508101Y10447870D01*
X509669Y10463860D01*
X511012Y10479848D01*
X512330Y10491983D01*
X535911Y10668718D01*
X536149Y10670456D01*
X536975Y10676332D01*
X539303Y10690095D01*
X542430Y10705887D01*
X545318Y10721622D01*
X547816Y10733582D01*
X588531Y10907173D01*
X588932Y10908855D01*
X590327Y10914623D01*
X593990Y10928109D01*
X598621Y10943447D01*
X603057Y10958917D01*
X606709Y10970569D01*
X664170Y11139358D01*
X664744Y11141026D01*
X666696Y11146630D01*
X671651Y11159672D01*
X677775Y11174528D01*
X683671Y11189421D01*
X688446Y11200672D01*
X762103Y11363048D01*
X762820Y11364614D01*
X765309Y11370002D01*
X771527Y11382530D01*
X779079Y11396733D01*
X786404Y11410985D01*
X792249Y11421706D01*
X881400Y11576119D01*
X882254Y11577586D01*
X885256Y11582705D01*
X892682Y11594591D01*
X901567Y11607963D01*
X910254Y11621443D01*
X917121Y11631548D01*
X1020914Y11776526D01*
X1021933Y11777939D01*
X1025421Y11782740D01*
X1033937Y11793798D01*
X1044060Y11806210D01*
X1054065Y11818833D01*
X1061880Y11828212D01*
X1179326Y11962369D01*
X1180493Y11963693D01*
X1184433Y11968130D01*
X1193975Y11978290D01*
X1205297Y11989691D01*
X1216442Y12001232D01*
X1225136Y12009806D01*
X1355101Y12131851D01*
X1355260Y12131682D01*
X1356539Y12132850D01*
X1356369Y12133033D01*
X1360712Y12137056D01*
X1371252Y12146285D01*
X1383646Y12156538D01*
X1395846Y12166920D01*
X1405334Y12174603D01*
X1546582Y12283378D01*
X1546799Y12283097D01*
X1548188Y12284186D01*
X1547986Y12284452D01*
X1552695Y12288027D01*
X1564062Y12296166D01*
X1577377Y12305147D01*
X1590560Y12314309D01*
X1600750Y12321027D01*
X1751954Y12415511D01*
X1752257Y12415027D01*
X1753721Y12416022D01*
X1753460Y12416446D01*
X1758506Y12419550D01*
X1770585Y12426523D01*
X1784649Y12434127D01*
X1798723Y12441993D01*
X1809528Y12447689D01*
X1969236Y12526968D01*
X1970804Y12527740D01*
X1976137Y12530341D01*
X1988845Y12536106D01*
X1991433Y12537194D01*
X1993968Y12538422D01*
X2005082Y12543475D01*
X2037322Y12557193D01*
X2038930Y12557870D01*
X2044406Y12560155D01*
X2057441Y12565172D01*
X2096594Y12578997D01*
X2119986Y12585992D01*
X2160301Y12595932D01*
X2184276Y12600614D01*
X2225369Y12606572D01*
X2249681Y12608892D01*
X2291158Y12610812D01*
X2315590Y12610747D01*
X2357058Y12608609D01*
X2381353Y12606163D01*
X2422414Y12599990D01*
X2446365Y12595182D01*
X2486627Y12585031D01*
X2509987Y12577911D01*
X2549067Y12563880D01*
X2571628Y12554512D01*
X2609152Y12536734D01*
X2630688Y12525210D01*
X2666298Y12503855D01*
X2686604Y12490287D01*
X2719961Y12465559D01*
X2738854Y12450068D01*
X2769637Y12422203D01*
X2786919Y12404950D01*
X2814837Y12374214D01*
X2830354Y12355357D01*
X2855140Y12322044D01*
X2868748Y12301754D01*
X2890164Y12266181D01*
X2901723Y12244668D01*
X2919566Y12207175D01*
X2928973Y12184632D01*
X2943072Y12145576D01*
X2950234Y12122224D01*
X2960454Y12081980D01*
X2965301Y12058045D01*
X2971546Y12016995D01*
X2974036Y11992695D01*
X2976245Y11951231D01*
X2976351Y11926804D01*
X2974503Y11885323D01*
X2972226Y11861011D01*
X2966340Y11819908D01*
X2961699Y11795921D01*
X2951829Y11755589D01*
X2944873Y11732180D01*
X2931115Y11693003D01*
X2921904Y11670377D01*
X2904388Y11632730D01*
X2893017Y11611117D01*
X2871911Y11575358D01*
X2858484Y11554956D01*
X2833990Y11521428D01*
X2818632Y11502430D01*
X2790983Y11471453D01*
X2773854Y11454053D01*
X2743315Y11425921D01*
X2724557Y11410264D01*
X2691417Y11385247D01*
X2671233Y11371505D01*
X2635810Y11349840D01*
X2614371Y11338127D01*
X2577003Y11320023D01*
X2565880Y11314966D01*
X2551811Y11308980D01*
X2439355Y11253156D01*
X2344133Y11193654D01*
X2255183Y11125154D01*
X2173346Y11048304D01*
X2099390Y10963825D01*
X2034022Y10872520D01*
X1977890Y10775297D01*
X1931509Y10673051D01*
X1895324Y10566760D01*
X1869688Y10457458D01*
X1854837Y10346159D01*
X1850919Y10233954D01*
X1857970Y10121898D01*
X1875919Y10011071D01*
X1904602Y9902513D01*
X1943734Y9797290D01*
X1992956Y9696370D01*
X2051786Y9600743D01*
X2119668Y9511312D01*
X2195949Y9428935D01*
X2279910Y9354392D01*
X2370743Y9288397D01*
X2467587Y9231579D01*
X2569502Y9184487D01*
X2675540Y9147561D01*
X2784660Y9121163D01*
X2895848Y9105536D01*
X3008026Y9100835D01*
X3120124Y9107103D01*
X3231067Y9124277D01*
X3339830Y9152202D01*
X3445333Y9190602D01*
X3546586Y9239115D01*
X3642619Y9297274D01*
X3732518Y9364526D01*
X3815434Y9440240D01*
X3890562Y9523678D01*
X3957186Y9614044D01*
X4014679Y9710490D01*
X4062479Y9812069D01*
X4100144Y9917846D01*
X4127308Y10026792D01*
X4143707Y10137851D01*
X4150805Y10282974D01*
X4150896Y10284706D01*
X4151227Y10290631D01*
X4152396Y10304557D01*
X4157025Y10345820D01*
X4160930Y10369927D01*
X4169563Y10410542D01*
X4175802Y10434155D01*
X4188357Y10473734D01*
X4196871Y10496628D01*
X4213228Y10534792D01*
X4223936Y10556746D01*
X4243940Y10593133D01*
X4256738Y10613936D01*
X4280197Y10648197D01*
X4294964Y10667652D01*
X4321654Y10699460D01*
X4338249Y10717381D01*
X4367915Y10746432D01*
X4386177Y10762646D01*
X4418537Y10788665D01*
X4438306Y10803028D01*
X4473051Y10825763D01*
X4494107Y10838116D01*
X4530904Y10857354D01*
X4553082Y10867602D01*
X4591580Y10883156D01*
X4614650Y10891190D01*
X4654484Y10902913D01*
X4678216Y10908654D01*
X4719002Y10916435D01*
X4743195Y10919835D01*
X4784547Y10923598D01*
X4808943Y10924621D01*
X4850464Y10924332D01*
X4874860Y10922968D01*
X4916155Y10918627D01*
X4940293Y10914890D01*
X4980967Y10906540D01*
X5004616Y10900468D01*
X5044282Y10888190D01*
X5067237Y10879835D01*
X5105514Y10863745D01*
X5127542Y10853191D01*
X5164067Y10833442D01*
X5184958Y10820790D01*
X5219382Y10797571D01*
X5238945Y10782936D01*
X5270938Y10756468D01*
X5288965Y10740008D01*
X5318224Y10710546D01*
X5334578Y10692382D01*
X5360820Y10660204D01*
X5375307Y10640554D01*
X5398286Y10605969D01*
X5410794Y10584988D01*
X5430288Y10548326D01*
X5440690Y10526219D01*
X5456512Y10487830D01*
X5464703Y10464829D01*
X5476705Y10425079D01*
X5482615Y10401376D01*
X5490680Y10360645D01*
X5494248Y10336482D01*
X5498300Y10295157D01*
X5499493Y10270761D01*
X5499493Y10229239D01*
X5499195Y10217027D01*
X5490485Y10038938D01*
X5490394Y10037205D01*
X5490063Y10031280D01*
X5488894Y10017360D01*
X5487104Y10001401D01*
X5485537Y9985423D01*
X5484049Y9973304D01*
X5458002Y9796915D01*
X5457740Y9795181D01*
X5456832Y9789317D01*
X5454312Y9775590D01*
X5450982Y9759924D01*
X5447859Y9744151D01*
X5445193Y9732225D01*
X5402058Y9559220D01*
X5401626Y9557511D01*
X5400150Y9551764D01*
X5396304Y9538356D01*
X5391455Y9523073D01*
X5386814Y9507698D01*
X5382998Y9496089D01*
X5323191Y9328130D01*
X5322994Y9328200D01*
X5322407Y9326539D01*
X5322593Y9326471D01*
X5320570Y9320912D01*
X5315423Y9307910D01*
X5309097Y9293152D01*
X5302984Y9278321D01*
X5298055Y9267145D01*
X5222138Y9105814D01*
X5221480Y9106124D01*
X5220907Y9104452D01*
X5221383Y9104224D01*
X5218823Y9098881D01*
X5212442Y9086466D01*
X5204733Y9072444D01*
X5197172Y9058224D01*
X5191177Y9047585D01*
X5099879Y8894431D01*
X5098983Y8892939D01*
X5095909Y8887863D01*
X5088344Y8876125D01*
X5079271Y8862874D01*
X5070389Y8849506D01*
X5063384Y8839502D01*
X4957577Y8695989D01*
X4956536Y8694587D01*
X4952981Y8689835D01*
X4944310Y8678895D01*
X4933977Y8666581D01*
X4923847Y8654160D01*
X4915898Y8644885D01*
X4796603Y8512394D01*
X4796559Y8512433D01*
X4795366Y8511087D01*
X4795394Y8511061D01*
X4791404Y8506692D01*
X4781719Y8496663D01*
X4770295Y8485475D01*
X4758932Y8474034D01*
X4750123Y8465587D01*
X4618456Y8345357D01*
X4617167Y8344188D01*
X4612757Y8340217D01*
X4602122Y8331166D01*
X4589568Y8321072D01*
X4577231Y8310867D01*
X4567640Y8303319D01*
X4424868Y8196512D01*
X4423489Y8195488D01*
X4418713Y8191966D01*
X4407215Y8183974D01*
X4393772Y8175178D01*
X4380490Y8166219D01*
X4370195Y8159635D01*
X4217697Y8067279D01*
X4217592Y8067452D01*
X4216079Y8066530D01*
X4216177Y8066366D01*
X4211098Y8063338D01*
X4198903Y8056522D01*
X4184680Y8049086D01*
X4170542Y8041443D01*
X4159671Y8035904D01*
X3998883Y7958867D01*
X3998857Y7958921D01*
X3997256Y7958165D01*
X3997283Y7958108D01*
X3991921Y7955585D01*
X3979126Y7949995D01*
X3964226Y7943975D01*
X3949457Y7937767D01*
X3938081Y7933308D01*
X3770550Y7872331D01*
X3770525Y7872401D01*
X3768843Y7871794D01*
X3768867Y7871725D01*
X3763298Y7869742D01*
X3750023Y7865429D01*
X3734671Y7860910D01*
X3719281Y7856147D01*
X3707534Y7852823D01*
X3534846Y7808484D01*
X3534782Y7808734D01*
X3533096Y7808345D01*
X3533167Y7808060D01*
X3527428Y7806628D01*
X3513742Y7803618D01*
X3497957Y7800607D01*
X3482248Y7797383D01*
X3470230Y7795221D01*
X3294047Y7767947D01*
X3294017Y7768144D01*
X3292303Y7767872D01*
X3292330Y7767687D01*
X3286472Y7766821D01*
X3272566Y7765162D01*
X3256566Y7763706D01*
X3240615Y7762030D01*
X3228446Y7761051D01*
X3050436Y7751098D01*
X3050409Y7751574D01*
X3048685Y7751467D01*
X3048708Y7751007D01*
X3042803Y7750717D01*
X3028785Y7750422D01*
X3012720Y7750535D01*
G37*
%TD*%
D11*
%TO.C,H2*%
X2500000Y3250000D03*
D12*
X1210000Y4540000D03*
X4325000Y3250000D03*
X3790000Y1960000D03*
X2500000Y1425000D03*
X1210000Y1960000D03*
X675000Y3250000D03*
D13*
G36*
X2512720Y750535D02*
G01*
X2496686Y750423D01*
X2484474Y750636D01*
X2306350Y758102D01*
X2306360Y758336D01*
X2304608Y758412D01*
X2304597Y758182D01*
X2298692Y758470D01*
X2284730Y759543D01*
X2268730Y761225D01*
X2252789Y762676D01*
X2240654Y764080D01*
X2064087Y788895D01*
X2062351Y789145D01*
X2056481Y790012D01*
X2042741Y792435D01*
X2027035Y795659D01*
X2011246Y798671D01*
X1999309Y801252D01*
X1826007Y843178D01*
X1824297Y843598D01*
X1818539Y845034D01*
X1805098Y848787D01*
X1789775Y853531D01*
X1774376Y858063D01*
X1762744Y861798D01*
X1594359Y920435D01*
X1592731Y921008D01*
X1587141Y922998D01*
X1574096Y928058D01*
X1559325Y934268D01*
X1544429Y940286D01*
X1533214Y945139D01*
X1371356Y1019927D01*
X1369755Y1020674D01*
X1364386Y1023201D01*
X1351943Y1029487D01*
X1337856Y1037104D01*
X1323594Y1044560D01*
X1312910Y1050482D01*
X1159139Y1140700D01*
X1159324Y1141015D01*
X1157806Y1141881D01*
X1157633Y1141591D01*
X1152552Y1144619D01*
X1140731Y1152119D01*
X1127380Y1161125D01*
X1113999Y1169881D01*
X1103942Y1176819D01*
X959693Y1281622D01*
X958309Y1282634D01*
X953532Y1286155D01*
X942500Y1294774D01*
X930135Y1305004D01*
X917629Y1315059D01*
X908299Y1322943D01*
X774965Y1441322D01*
X773658Y1442490D01*
X769248Y1446461D01*
X759142Y1456086D01*
X747850Y1467458D01*
X736363Y1478706D01*
X727844Y1487466D01*
X606709Y1618281D01*
X606963Y1618516D01*
X605786Y1619831D01*
X605514Y1619582D01*
X601519Y1623957D01*
X592393Y1634529D01*
X582256Y1646959D01*
X571930Y1659265D01*
X564312Y1668808D01*
X456511Y1810830D01*
X455476Y1812203D01*
X451921Y1816954D01*
X443855Y1828387D01*
X434976Y1841751D01*
X425904Y1855001D01*
X419252Y1865244D01*
X325824Y2017109D01*
X324924Y2018585D01*
X321850Y2023660D01*
X314945Y2035813D01*
X307398Y2050006D01*
X299676Y2064053D01*
X294053Y2074901D01*
X215900Y2235141D01*
X216381Y2235376D01*
X215634Y2236935D01*
X215146Y2236701D01*
X212590Y2242033D01*
X206886Y2254840D01*
X200764Y2269694D01*
X194450Y2284426D01*
X189913Y2295770D01*
X127762Y2462889D01*
X127166Y2464508D01*
X125136Y2470084D01*
X120720Y2483358D01*
X116090Y2498696D01*
X111229Y2514019D01*
X107821Y2525750D01*
X62275Y2698136D01*
X61837Y2699818D01*
X60361Y2705566D01*
X57265Y2719192D01*
X54150Y2734927D01*
X50811Y2750635D01*
X48564Y2762642D01*
X20057Y2938650D01*
X19785Y2940365D01*
X18877Y2946229D01*
X17126Y2960088D01*
X15559Y2976066D01*
X13770Y2992023D01*
X12706Y3004184D01*
X1511Y3182116D01*
X1840Y3182137D01*
X1749Y3183875D01*
X1408Y3183856D01*
X1077Y3189758D01*
X685Y3203757D01*
X685Y3219782D01*
X461Y3235872D01*
X589Y3248077D01*
X6811Y3426249D01*
X7054Y3426241D01*
X7133Y3427995D01*
X6879Y3428006D01*
X7126Y3433915D01*
X8101Y3447870D01*
X9669Y3463860D01*
X11012Y3479848D01*
X12330Y3491983D01*
X35911Y3668718D01*
X36149Y3670456D01*
X36975Y3676332D01*
X39303Y3690095D01*
X42430Y3705887D01*
X45318Y3721622D01*
X47816Y3733582D01*
X88531Y3907173D01*
X88932Y3908855D01*
X90327Y3914623D01*
X93990Y3928109D01*
X98621Y3943447D01*
X103057Y3958917D01*
X106709Y3970569D01*
X164170Y4139358D01*
X164744Y4141026D01*
X166696Y4146630D01*
X171651Y4159672D01*
X177775Y4174528D01*
X183671Y4189421D01*
X188446Y4200672D01*
X262103Y4363048D01*
X262820Y4364614D01*
X265309Y4370002D01*
X271527Y4382530D01*
X279079Y4396733D01*
X286404Y4410985D01*
X292249Y4421706D01*
X381400Y4576119D01*
X382254Y4577586D01*
X385256Y4582705D01*
X392682Y4594591D01*
X401567Y4607963D01*
X410254Y4621443D01*
X417121Y4631548D01*
X520914Y4776526D01*
X521933Y4777939D01*
X525421Y4782740D01*
X533937Y4793798D01*
X544060Y4806210D01*
X554065Y4818833D01*
X561880Y4828212D01*
X679326Y4962369D01*
X680493Y4963693D01*
X684433Y4968130D01*
X693975Y4978290D01*
X705297Y4989691D01*
X716442Y5001232D01*
X725136Y5009806D01*
X855101Y5131851D01*
X855260Y5131682D01*
X856539Y5132850D01*
X856369Y5133033D01*
X860712Y5137056D01*
X871252Y5146285D01*
X883646Y5156538D01*
X895846Y5166920D01*
X905334Y5174603D01*
X1046582Y5283378D01*
X1046799Y5283097D01*
X1048188Y5284186D01*
X1047986Y5284452D01*
X1052695Y5288027D01*
X1064062Y5296166D01*
X1077377Y5305147D01*
X1090560Y5314309D01*
X1100750Y5321027D01*
X1251954Y5415511D01*
X1252257Y5415027D01*
X1253721Y5416022D01*
X1253460Y5416446D01*
X1258506Y5419550D01*
X1270585Y5426523D01*
X1284649Y5434127D01*
X1298723Y5441993D01*
X1309528Y5447689D01*
X1469236Y5526968D01*
X1470804Y5527740D01*
X1476137Y5530341D01*
X1488845Y5536106D01*
X1491433Y5537194D01*
X1493968Y5538422D01*
X1505082Y5543475D01*
X1537322Y5557193D01*
X1538930Y5557870D01*
X1544406Y5560155D01*
X1557441Y5565172D01*
X1596594Y5578997D01*
X1619986Y5585992D01*
X1660301Y5595932D01*
X1684276Y5600614D01*
X1725369Y5606572D01*
X1749681Y5608892D01*
X1791158Y5610812D01*
X1815590Y5610747D01*
X1857058Y5608609D01*
X1881353Y5606163D01*
X1922414Y5599990D01*
X1946365Y5595182D01*
X1986627Y5585031D01*
X2009987Y5577911D01*
X2049067Y5563880D01*
X2071628Y5554512D01*
X2109152Y5536734D01*
X2130688Y5525210D01*
X2166298Y5503855D01*
X2186604Y5490287D01*
X2219961Y5465559D01*
X2238854Y5450068D01*
X2269637Y5422203D01*
X2286919Y5404950D01*
X2314837Y5374214D01*
X2330354Y5355357D01*
X2355140Y5322044D01*
X2368748Y5301754D01*
X2390164Y5266181D01*
X2401723Y5244668D01*
X2419566Y5207175D01*
X2428973Y5184632D01*
X2443072Y5145576D01*
X2450234Y5122224D01*
X2460454Y5081980D01*
X2465301Y5058045D01*
X2471546Y5016995D01*
X2474036Y4992695D01*
X2476245Y4951231D01*
X2476351Y4926804D01*
X2474503Y4885323D01*
X2472226Y4861011D01*
X2466340Y4819908D01*
X2461699Y4795921D01*
X2451829Y4755589D01*
X2444873Y4732180D01*
X2431115Y4693003D01*
X2421904Y4670377D01*
X2404388Y4632730D01*
X2393017Y4611117D01*
X2371911Y4575358D01*
X2358484Y4554956D01*
X2333990Y4521428D01*
X2318632Y4502430D01*
X2290983Y4471453D01*
X2273854Y4454053D01*
X2243315Y4425921D01*
X2224557Y4410264D01*
X2191417Y4385247D01*
X2171233Y4371505D01*
X2135810Y4349840D01*
X2114371Y4338127D01*
X2077003Y4320023D01*
X2065880Y4314966D01*
X2051811Y4308980D01*
X1939355Y4253156D01*
X1844133Y4193654D01*
X1755183Y4125154D01*
X1673346Y4048304D01*
X1599390Y3963825D01*
X1534022Y3872520D01*
X1477890Y3775297D01*
X1431509Y3673051D01*
X1395324Y3566760D01*
X1369688Y3457458D01*
X1354837Y3346159D01*
X1350919Y3233954D01*
X1357970Y3121898D01*
X1375919Y3011071D01*
X1404602Y2902513D01*
X1443734Y2797290D01*
X1492956Y2696370D01*
X1551786Y2600743D01*
X1619668Y2511312D01*
X1695949Y2428935D01*
X1779910Y2354392D01*
X1870743Y2288397D01*
X1967587Y2231579D01*
X2069502Y2184487D01*
X2175540Y2147561D01*
X2284660Y2121163D01*
X2395848Y2105536D01*
X2508026Y2100835D01*
X2620124Y2107103D01*
X2731067Y2124277D01*
X2839830Y2152202D01*
X2945333Y2190602D01*
X3046586Y2239115D01*
X3142619Y2297274D01*
X3232518Y2364526D01*
X3315434Y2440240D01*
X3390562Y2523678D01*
X3457186Y2614044D01*
X3514679Y2710490D01*
X3562479Y2812069D01*
X3600144Y2917846D01*
X3627308Y3026792D01*
X3643707Y3137851D01*
X3650805Y3282974D01*
X3650896Y3284706D01*
X3651227Y3290631D01*
X3652396Y3304557D01*
X3657025Y3345820D01*
X3660930Y3369927D01*
X3669563Y3410542D01*
X3675802Y3434155D01*
X3688357Y3473734D01*
X3696871Y3496628D01*
X3713228Y3534792D01*
X3723936Y3556746D01*
X3743940Y3593133D01*
X3756738Y3613936D01*
X3780197Y3648197D01*
X3794964Y3667652D01*
X3821654Y3699460D01*
X3838249Y3717381D01*
X3867915Y3746432D01*
X3886177Y3762646D01*
X3918537Y3788665D01*
X3938306Y3803028D01*
X3973051Y3825763D01*
X3994107Y3838116D01*
X4030904Y3857354D01*
X4053082Y3867602D01*
X4091580Y3883156D01*
X4114650Y3891190D01*
X4154484Y3902913D01*
X4178216Y3908654D01*
X4219002Y3916435D01*
X4243195Y3919835D01*
X4284547Y3923598D01*
X4308943Y3924621D01*
X4350464Y3924332D01*
X4374860Y3922968D01*
X4416155Y3918627D01*
X4440293Y3914890D01*
X4480967Y3906540D01*
X4504616Y3900468D01*
X4544282Y3888190D01*
X4567237Y3879835D01*
X4605514Y3863745D01*
X4627542Y3853191D01*
X4664067Y3833442D01*
X4684958Y3820790D01*
X4719382Y3797571D01*
X4738945Y3782936D01*
X4770938Y3756468D01*
X4788965Y3740008D01*
X4818224Y3710546D01*
X4834578Y3692382D01*
X4860820Y3660204D01*
X4875307Y3640554D01*
X4898286Y3605969D01*
X4910794Y3584988D01*
X4930288Y3548326D01*
X4940690Y3526219D01*
X4956512Y3487830D01*
X4964703Y3464829D01*
X4976705Y3425079D01*
X4982615Y3401376D01*
X4990680Y3360645D01*
X4994248Y3336482D01*
X4998300Y3295157D01*
X4999493Y3270761D01*
X4999493Y3229239D01*
X4999195Y3217027D01*
X4990485Y3038938D01*
X4990394Y3037205D01*
X4990063Y3031280D01*
X4988894Y3017360D01*
X4987104Y3001401D01*
X4985537Y2985423D01*
X4984049Y2973304D01*
X4958002Y2796915D01*
X4957740Y2795181D01*
X4956832Y2789317D01*
X4954312Y2775590D01*
X4950982Y2759924D01*
X4947859Y2744151D01*
X4945193Y2732225D01*
X4902058Y2559220D01*
X4901626Y2557511D01*
X4900150Y2551764D01*
X4896304Y2538356D01*
X4891455Y2523073D01*
X4886814Y2507698D01*
X4882998Y2496089D01*
X4823191Y2328130D01*
X4822994Y2328200D01*
X4822407Y2326539D01*
X4822593Y2326471D01*
X4820570Y2320912D01*
X4815423Y2307910D01*
X4809097Y2293152D01*
X4802984Y2278321D01*
X4798055Y2267145D01*
X4722138Y2105814D01*
X4721480Y2106124D01*
X4720907Y2104452D01*
X4721383Y2104224D01*
X4718823Y2098881D01*
X4712442Y2086466D01*
X4704733Y2072444D01*
X4697172Y2058224D01*
X4691177Y2047585D01*
X4599879Y1894431D01*
X4598983Y1892939D01*
X4595909Y1887863D01*
X4588344Y1876125D01*
X4579271Y1862874D01*
X4570389Y1849506D01*
X4563384Y1839502D01*
X4457577Y1695989D01*
X4456536Y1694587D01*
X4452981Y1689835D01*
X4444310Y1678895D01*
X4433977Y1666581D01*
X4423847Y1654160D01*
X4415898Y1644885D01*
X4296603Y1512394D01*
X4296559Y1512433D01*
X4295366Y1511087D01*
X4295394Y1511061D01*
X4291404Y1506692D01*
X4281719Y1496663D01*
X4270295Y1485475D01*
X4258932Y1474034D01*
X4250123Y1465587D01*
X4118456Y1345357D01*
X4117167Y1344188D01*
X4112757Y1340217D01*
X4102122Y1331166D01*
X4089568Y1321072D01*
X4077231Y1310867D01*
X4067640Y1303319D01*
X3924868Y1196512D01*
X3923489Y1195488D01*
X3918713Y1191966D01*
X3907215Y1183974D01*
X3893772Y1175178D01*
X3880490Y1166219D01*
X3870195Y1159635D01*
X3717697Y1067279D01*
X3717592Y1067452D01*
X3716079Y1066530D01*
X3716177Y1066366D01*
X3711098Y1063338D01*
X3698903Y1056522D01*
X3684680Y1049086D01*
X3670542Y1041443D01*
X3659671Y1035904D01*
X3498883Y958867D01*
X3498857Y958921D01*
X3497256Y958165D01*
X3497283Y958108D01*
X3491921Y955585D01*
X3479126Y949995D01*
X3464226Y943975D01*
X3449457Y937767D01*
X3438081Y933308D01*
X3270550Y872331D01*
X3270525Y872401D01*
X3268843Y871794D01*
X3268867Y871725D01*
X3263298Y869742D01*
X3250023Y865429D01*
X3234671Y860910D01*
X3219281Y856147D01*
X3207534Y852823D01*
X3034846Y808484D01*
X3034782Y808734D01*
X3033096Y808345D01*
X3033167Y808060D01*
X3027428Y806628D01*
X3013742Y803618D01*
X2997957Y800607D01*
X2982248Y797383D01*
X2970230Y795221D01*
X2794047Y767947D01*
X2794017Y768144D01*
X2792303Y767872D01*
X2792330Y767687D01*
X2786472Y766821D01*
X2772566Y765162D01*
X2756566Y763706D01*
X2740615Y762030D01*
X2728446Y761051D01*
X2550436Y751098D01*
X2550409Y751574D01*
X2548685Y751467D01*
X2548708Y751007D01*
X2542803Y750717D01*
X2528785Y750422D01*
X2512720Y750535D01*
G37*
%TD*%
%TO.C,H3*%
G36*
X9970334Y12610536D02*
G01*
X9994730Y12609300D01*
X10036047Y12605176D01*
X10060203Y12601566D01*
X10100920Y12593430D01*
X10124610Y12587479D01*
X10164340Y12575408D01*
X10187337Y12567174D01*
X10225698Y12551284D01*
X10236865Y12546335D01*
X10398064Y12470136D01*
X10399627Y12469391D01*
X10404974Y12466818D01*
X10417401Y12460404D01*
X10431448Y12452649D01*
X10445601Y12445092D01*
X10456234Y12439076D01*
X10609221Y12347516D01*
X10609074Y12347270D01*
X10610526Y12346362D01*
X10610689Y12346630D01*
X10615749Y12343555D01*
X10627523Y12335940D01*
X10640758Y12326843D01*
X10654102Y12317944D01*
X10664097Y12310919D01*
X10807426Y12204861D01*
X10808814Y12203826D01*
X10813560Y12200263D01*
X10824500Y12191562D01*
X10836784Y12181218D01*
X10849201Y12171054D01*
X10858459Y12163090D01*
X10990738Y12043566D01*
X10990646Y12043464D01*
X10991999Y12042305D01*
X10992057Y12042368D01*
X10996419Y12038371D01*
X11006452Y12028648D01*
X11017643Y12017179D01*
X11029025Y12005837D01*
X11037464Y11997006D01*
X11157464Y11865129D01*
X11158638Y11863830D01*
X11162601Y11859413D01*
X11171632Y11848764D01*
X11181681Y11836220D01*
X11191875Y11823854D01*
X11199415Y11814238D01*
X11305964Y11671290D01*
X11305511Y11670953D01*
X11306563Y11669590D01*
X11306990Y11669904D01*
X11310496Y11665133D01*
X11318477Y11653608D01*
X11327223Y11640190D01*
X11336188Y11626849D01*
X11342752Y11616546D01*
X11434845Y11463882D01*
X11434635Y11463755D01*
X11435538Y11462261D01*
X11435742Y11462382D01*
X11438766Y11457290D01*
X11445568Y11445071D01*
X11452987Y11430820D01*
X11460591Y11416696D01*
X11466115Y11405807D01*
X11542872Y11244883D01*
X11542199Y11244562D01*
X11542903Y11243019D01*
X11543599Y11243345D01*
X11546112Y11237984D01*
X11551710Y11225114D01*
X11557690Y11210236D01*
X11563889Y11195418D01*
X11568327Y11184034D01*
X11629017Y11016378D01*
X11629600Y11014751D01*
X11631581Y11009158D01*
X11635879Y10995853D01*
X11640380Y10980461D01*
X11645103Y10965107D01*
X11648408Y10953347D01*
X11692448Y10780570D01*
X11692868Y10778900D01*
X11694294Y10773140D01*
X11697275Y10759466D01*
X11700244Y10743747D01*
X11703453Y10727977D01*
X11705596Y10715948D01*
X11732566Y10539697D01*
X11732821Y10537986D01*
X11733678Y10532114D01*
X11735310Y10518224D01*
X11736731Y10502300D01*
X11738386Y10486282D01*
X11739344Y10474102D01*
X11748986Y10296077D01*
X11748605Y10296056D01*
X11748703Y10294300D01*
X11749075Y10294318D01*
X11749354Y10288414D01*
X11749623Y10274422D01*
X11749483Y10258431D01*
X11749567Y10242323D01*
X11749332Y10230112D01*
X11741555Y10052000D01*
X11741276Y10052012D01*
X11741194Y10050283D01*
X11741473Y10050269D01*
X11741175Y10044362D01*
X11740076Y10030376D01*
X11738366Y10014382D01*
X11736888Y9998451D01*
X11735463Y9986315D01*
X11710342Y9809808D01*
X11709961Y9809862D01*
X11709735Y9808105D01*
X11710086Y9808053D01*
X11709211Y9802198D01*
X11706761Y9788445D01*
X11703524Y9772815D01*
X11700473Y9756973D01*
X11697871Y9745039D01*
X11655643Y9571809D01*
X11655229Y9570135D01*
X11653784Y9564380D01*
X11649998Y9550911D01*
X11645211Y9535543D01*
X11640664Y9520194D01*
X11636912Y9508575D01*
X11577982Y9340295D01*
X11577404Y9338665D01*
X11575404Y9333078D01*
X11570328Y9320055D01*
X11564051Y9305196D01*
X11558037Y9290386D01*
X11553169Y9279191D01*
X11478097Y9117463D01*
X11477357Y9115883D01*
X11474821Y9110518D01*
X11468502Y9098063D01*
X11460833Y9083940D01*
X11453383Y9069749D01*
X11447442Y9059075D01*
X11356947Y8905445D01*
X11356065Y8903960D01*
X11353018Y8898868D01*
X11345506Y8887075D01*
X11336518Y8873800D01*
X11327696Y8860370D01*
X11320742Y8850328D01*
X11215689Y8706263D01*
X11214662Y8704865D01*
X11211132Y8700094D01*
X11202509Y8689095D01*
X11192229Y8676713D01*
X11182173Y8664251D01*
X11174275Y8654938D01*
X11055674Y8521823D01*
X11055620Y8521871D01*
X11054440Y8520526D01*
X11054479Y8520491D01*
X11050512Y8516101D01*
X11040872Y8506014D01*
X11029479Y8494740D01*
X11018208Y8483271D01*
X11009440Y8474775D01*
X10878415Y8353868D01*
X10878270Y8354025D01*
X10876986Y8352845D01*
X10877129Y8352688D01*
X10872754Y8348706D01*
X10862142Y8339578D01*
X10849662Y8329436D01*
X10837372Y8319160D01*
X10827811Y8311554D01*
X10685600Y8204001D01*
X10684191Y8202943D01*
X10679433Y8199397D01*
X10668019Y8191376D01*
X10654655Y8182531D01*
X10641378Y8173474D01*
X10631120Y8166837D01*
X10479113Y8073688D01*
X10478987Y8073893D01*
X10477488Y8072986D01*
X10477614Y8072777D01*
X10472553Y8069723D01*
X10460366Y8062827D01*
X10446175Y8055313D01*
X10432104Y8047610D01*
X10421249Y8042007D01*
X10260863Y7964128D01*
X10260447Y7964984D01*
X10258915Y7964206D01*
X10259309Y7963380D01*
X10253965Y7960830D01*
X10241161Y7955155D01*
X10226267Y7949047D01*
X10211541Y7942766D01*
X10200195Y7938250D01*
X10032983Y7876397D01*
X10032873Y7876694D01*
X10031230Y7876044D01*
X10031322Y7875789D01*
X10025756Y7873774D01*
X10012494Y7869388D01*
X9997148Y7864784D01*
X9981809Y7859948D01*
X9970075Y7856561D01*
X9797625Y7811320D01*
X9797557Y7811580D01*
X9795866Y7811107D01*
X9795924Y7810879D01*
X9790199Y7809419D01*
X9776546Y7806342D01*
X9760774Y7803248D01*
X9745084Y7799942D01*
X9733077Y7797716D01*
X9557040Y7769520D01*
X9557015Y7769678D01*
X9555271Y7769418D01*
X9555297Y7769248D01*
X9549444Y7768352D01*
X9535570Y7766623D01*
X9519549Y7765081D01*
X9503645Y7763325D01*
X9491476Y7762281D01*
X9313521Y7751396D01*
X9313495Y7751822D01*
X9311773Y7751721D01*
X9311796Y7751297D01*
X9305893Y7750976D01*
X9291868Y7750607D01*
X9275800Y7750636D01*
X9259779Y7750440D01*
X9247561Y7750589D01*
X9069379Y7757123D01*
X9067630Y7757193D01*
X9061701Y7757452D01*
X9047773Y7758451D01*
X9031803Y7760046D01*
X9015817Y7761416D01*
X9003673Y7762756D01*
X8826979Y7786646D01*
X8825256Y7786885D01*
X8819381Y7787721D01*
X8805615Y7790074D01*
X8789838Y7793227D01*
X8774083Y7796147D01*
X8762137Y7798664D01*
X8588638Y7839677D01*
X8588672Y7839821D01*
X8586931Y7840232D01*
X8586898Y7840095D01*
X8581155Y7841495D01*
X8567686Y7845180D01*
X8552362Y7849836D01*
X8536901Y7854299D01*
X8525257Y7857970D01*
X8356579Y7915721D01*
X8356643Y7915909D01*
X8354976Y7916498D01*
X8354907Y7916301D01*
X8349324Y7918256D01*
X8336269Y7923241D01*
X8321461Y7929375D01*
X8306532Y7935316D01*
X8295292Y7940110D01*
X8133045Y8014051D01*
X8131484Y8014769D01*
X8126101Y8017267D01*
X8113580Y8023509D01*
X8099379Y8031092D01*
X8085160Y8038431D01*
X8074447Y8044296D01*
X7920196Y8133712D01*
X7920912Y8134946D01*
X7919392Y8135801D01*
X7918682Y8134596D01*
X7913575Y8137604D01*
X7901741Y8145027D01*
X7888385Y8153934D01*
X7874900Y8162659D01*
X7864818Y8169537D01*
X7720022Y8273583D01*
X7720023Y8273585D01*
X7718599Y8274612D01*
X7713813Y8278102D01*
X7702762Y8286644D01*
X7690371Y8296787D01*
X7677781Y8306801D01*
X7668409Y8314638D01*
X7534467Y8432310D01*
X7534956Y8432867D01*
X7533639Y8433991D01*
X7533166Y8433460D01*
X7528747Y8437396D01*
X7518553Y8447002D01*
X7507220Y8458296D01*
X7495659Y8469500D01*
X7487097Y8478213D01*
X7365280Y8608391D01*
X7365442Y8608543D01*
X7364192Y8609786D01*
X7364079Y8609682D01*
X7360062Y8614035D01*
X7350884Y8624556D01*
X7340666Y8636952D01*
X7330284Y8649194D01*
X7322619Y8658693D01*
X7214075Y8800149D01*
X7213026Y8801526D01*
X7209446Y8806259D01*
X7201324Y8817646D01*
X7192393Y8830938D01*
X7183240Y8844156D01*
X7176529Y8854371D01*
X7082318Y9005729D01*
X7082652Y9005937D01*
X7081707Y9007433D01*
X7081387Y9007237D01*
X7078297Y9012279D01*
X7071336Y9024384D01*
X7063735Y9038499D01*
X7055909Y9052562D01*
X7050237Y9063366D01*
X6971237Y9223210D01*
X6970470Y9224777D01*
X6967878Y9230115D01*
X6962130Y9242845D01*
X6955938Y9257648D01*
X6949540Y9272362D01*
X6944942Y9283684D01*
X6881916Y9450475D01*
X6881306Y9452108D01*
X6879247Y9457674D01*
X6874771Y9470898D01*
X6870043Y9486266D01*
X6865115Y9501524D01*
X6861646Y9513234D01*
X6815198Y9685379D01*
X6814751Y9687060D01*
X6813245Y9692800D01*
X6810078Y9706405D01*
X6806876Y9722142D01*
X6803459Y9737815D01*
X6801149Y9749814D01*
X6771721Y9925671D01*
X6771436Y9927411D01*
X6770498Y9933270D01*
X6768679Y9947088D01*
X6767035Y9962998D01*
X6765154Y9979011D01*
X6764027Y9991166D01*
X6751900Y10169054D01*
X6751789Y10170765D01*
X6751426Y10176688D01*
X6750961Y10190687D01*
X6750947Y10193487D01*
X6750784Y10196262D01*
X6750369Y10208471D01*
X6750032Y10243507D01*
X6750021Y10245238D01*
X6750005Y10251172D01*
X6750358Y10265146D01*
X6752567Y10306610D01*
X6755055Y10330899D01*
X6761298Y10371948D01*
X6766148Y10395896D01*
X6776369Y10436142D01*
X6783529Y10459488D01*
X6797627Y10498543D01*
X6807035Y10521090D01*
X6824878Y10558583D01*
X6836435Y10580094D01*
X6857851Y10615668D01*
X6871456Y10635953D01*
X6896241Y10669267D01*
X6911760Y10688127D01*
X6939677Y10718863D01*
X6956965Y10736123D01*
X6987749Y10763988D01*
X7006636Y10779474D01*
X7039992Y10804202D01*
X7060296Y10817770D01*
X7095906Y10839126D01*
X7117450Y10850654D01*
X7154973Y10868431D01*
X7177525Y10877795D01*
X7216605Y10891827D01*
X7239965Y10898948D01*
X7280227Y10909100D01*
X7304178Y10913908D01*
X7345239Y10920082D01*
X7369539Y10922529D01*
X7411006Y10924667D01*
X7435433Y10924732D01*
X7476912Y10922813D01*
X7501231Y10920493D01*
X7542323Y10914535D01*
X7566292Y10909854D01*
X7606607Y10899915D01*
X7630004Y10892919D01*
X7669157Y10879094D01*
X7691765Y10869845D01*
X7729382Y10852265D01*
X7750979Y10840855D01*
X7786701Y10819688D01*
X7807085Y10806222D01*
X7840571Y10781669D01*
X7859528Y10766291D01*
X7890459Y10738590D01*
X7907851Y10721410D01*
X7935929Y10690820D01*
X7951534Y10672058D01*
X7976496Y10638876D01*
X7990214Y10618654D01*
X8011817Y10583194D01*
X8023491Y10561738D01*
X8041530Y10524340D01*
X8051051Y10501856D01*
X8065356Y10462876D01*
X8072643Y10439556D01*
X8083075Y10399365D01*
X8088048Y10375456D01*
X8094509Y10334439D01*
X8097127Y10310146D01*
X8099553Y10268695D01*
X8099968Y10256488D01*
X8100115Y10241200D01*
X8108655Y10115928D01*
X8127187Y10005182D01*
X8156433Y9896792D01*
X8196123Y9791757D01*
X8245867Y9691108D01*
X8305197Y9595788D01*
X8373551Y9506709D01*
X8450254Y9424742D01*
X8534613Y9350630D01*
X8625785Y9285117D01*
X8722925Y9228807D01*
X8825098Y9182244D01*
X8931301Y9145882D01*
X9040576Y9120051D01*
X9151840Y9105007D01*
X9264040Y9100893D01*
X9376107Y9107748D01*
X9486979Y9125505D01*
X9595562Y9153993D01*
X9700867Y9192946D01*
X9801878Y9241995D01*
X9897602Y9300655D01*
X9987149Y9368379D01*
X10069666Y9444523D01*
X10144350Y9528348D01*
X10210504Y9619069D01*
X10267490Y9715810D01*
X10314760Y9817644D01*
X10351866Y9923602D01*
X10378460Y10032698D01*
X10394280Y10143856D01*
X10399178Y10256014D01*
X10393105Y10368123D01*
X10376121Y10479118D01*
X10348392Y10587904D01*
X10310172Y10693485D01*
X10261839Y10794819D01*
X10203846Y10890955D01*
X10136748Y10980975D01*
X10061178Y11064023D01*
X9977881Y11139288D01*
X9887622Y11206077D01*
X9791289Y11263730D01*
X9659929Y11325824D01*
X9658382Y11326562D01*
X9653034Y11329135D01*
X9640592Y11335556D01*
X9604242Y11355624D01*
X9583473Y11368452D01*
X9549253Y11391970D01*
X9529817Y11406776D01*
X9498056Y11433522D01*
X9480168Y11450145D01*
X9451168Y11479862D01*
X9434979Y11498160D01*
X9409018Y11530566D01*
X9394701Y11550345D01*
X9372025Y11585129D01*
X9359700Y11606220D01*
X9340527Y11643051D01*
X9330320Y11665243D01*
X9314833Y11703769D01*
X9306842Y11726846D01*
X9295188Y11766699D01*
X9289485Y11790453D01*
X9281776Y11831254D01*
X9278420Y11855445D01*
X9274729Y11896802D01*
X9273749Y11921211D01*
X9274112Y11962732D01*
X9275518Y11987116D01*
X9279931Y12028403D01*
X9283709Y12052528D01*
X9292129Y12093188D01*
X9298244Y12116834D01*
X9310591Y12156477D01*
X9318985Y12179415D01*
X9335142Y12217665D01*
X9345737Y12239680D01*
X9365551Y12276171D01*
X9378240Y12297039D01*
X9401519Y12331421D01*
X9416180Y12350948D01*
X9442703Y12382896D01*
X9459208Y12400908D01*
X9488722Y12430114D01*
X9506900Y12446424D01*
X9539123Y12472611D01*
X9558807Y12487071D01*
X9593432Y12509989D01*
X9614437Y12522461D01*
X9651133Y12541890D01*
X9673244Y12552247D01*
X9711661Y12568004D01*
X9734702Y12576163D01*
X9774474Y12588093D01*
X9798165Y12593956D01*
X9838910Y12601951D01*
X9863090Y12605479D01*
X9904422Y12609458D01*
X9928813Y12610608D01*
X9970334Y12610536D01*
G37*
D11*
X9250000Y10250000D03*
D12*
X10540000Y11540000D03*
X7425000Y10250000D03*
X7960000Y8960000D03*
X9250000Y8425000D03*
X10540000Y8960000D03*
X11075000Y10250000D03*
%TD*%
D13*
%TO.C,H4*%
G36*
X10470334Y5610536D02*
G01*
X10494730Y5609300D01*
X10536047Y5605176D01*
X10560203Y5601566D01*
X10600920Y5593430D01*
X10624610Y5587479D01*
X10664340Y5575408D01*
X10687337Y5567174D01*
X10725698Y5551284D01*
X10736865Y5546335D01*
X10898064Y5470136D01*
X10899627Y5469391D01*
X10904974Y5466818D01*
X10917401Y5460404D01*
X10931448Y5452649D01*
X10945601Y5445092D01*
X10956234Y5439076D01*
X11109221Y5347516D01*
X11109074Y5347270D01*
X11110526Y5346362D01*
X11110689Y5346630D01*
X11115749Y5343555D01*
X11127523Y5335940D01*
X11140758Y5326843D01*
X11154102Y5317944D01*
X11164097Y5310919D01*
X11307426Y5204861D01*
X11308814Y5203826D01*
X11313560Y5200263D01*
X11324500Y5191562D01*
X11336784Y5181218D01*
X11349201Y5171054D01*
X11358459Y5163090D01*
X11490738Y5043566D01*
X11490646Y5043464D01*
X11491999Y5042305D01*
X11492057Y5042368D01*
X11496419Y5038371D01*
X11506452Y5028648D01*
X11517643Y5017179D01*
X11529025Y5005837D01*
X11537464Y4997006D01*
X11657464Y4865129D01*
X11658638Y4863830D01*
X11662601Y4859413D01*
X11671632Y4848764D01*
X11681681Y4836220D01*
X11691875Y4823854D01*
X11699415Y4814238D01*
X11805964Y4671290D01*
X11805511Y4670953D01*
X11806563Y4669590D01*
X11806990Y4669904D01*
X11810496Y4665133D01*
X11818477Y4653608D01*
X11827223Y4640190D01*
X11836188Y4626849D01*
X11842752Y4616546D01*
X11934845Y4463882D01*
X11934635Y4463755D01*
X11935538Y4462261D01*
X11935742Y4462382D01*
X11938766Y4457290D01*
X11945568Y4445071D01*
X11952987Y4430820D01*
X11960591Y4416696D01*
X11966115Y4405807D01*
X12042872Y4244883D01*
X12042199Y4244562D01*
X12042903Y4243019D01*
X12043599Y4243345D01*
X12046112Y4237984D01*
X12051710Y4225114D01*
X12057690Y4210236D01*
X12063889Y4195418D01*
X12068327Y4184034D01*
X12129017Y4016378D01*
X12129600Y4014751D01*
X12131581Y4009158D01*
X12135879Y3995853D01*
X12140380Y3980461D01*
X12145103Y3965107D01*
X12148408Y3953347D01*
X12192448Y3780570D01*
X12192868Y3778900D01*
X12194294Y3773140D01*
X12197275Y3759466D01*
X12200244Y3743747D01*
X12203453Y3727977D01*
X12205596Y3715948D01*
X12232566Y3539697D01*
X12232821Y3537986D01*
X12233678Y3532114D01*
X12235310Y3518224D01*
X12236731Y3502300D01*
X12238386Y3486282D01*
X12239344Y3474102D01*
X12248986Y3296077D01*
X12248605Y3296056D01*
X12248703Y3294300D01*
X12249075Y3294318D01*
X12249354Y3288414D01*
X12249623Y3274422D01*
X12249483Y3258431D01*
X12249567Y3242323D01*
X12249332Y3230112D01*
X12241555Y3052000D01*
X12241276Y3052012D01*
X12241194Y3050283D01*
X12241473Y3050269D01*
X12241175Y3044362D01*
X12240076Y3030376D01*
X12238366Y3014382D01*
X12236888Y2998451D01*
X12235463Y2986315D01*
X12210342Y2809808D01*
X12209961Y2809862D01*
X12209735Y2808105D01*
X12210086Y2808053D01*
X12209211Y2802198D01*
X12206761Y2788445D01*
X12203524Y2772815D01*
X12200473Y2756973D01*
X12197871Y2745039D01*
X12155643Y2571809D01*
X12155229Y2570135D01*
X12153784Y2564380D01*
X12149998Y2550911D01*
X12145211Y2535543D01*
X12140664Y2520194D01*
X12136912Y2508575D01*
X12077982Y2340295D01*
X12077404Y2338665D01*
X12075404Y2333078D01*
X12070328Y2320055D01*
X12064051Y2305196D01*
X12058037Y2290386D01*
X12053169Y2279191D01*
X11978097Y2117463D01*
X11977357Y2115883D01*
X11974821Y2110518D01*
X11968502Y2098063D01*
X11960833Y2083940D01*
X11953383Y2069749D01*
X11947442Y2059075D01*
X11856947Y1905445D01*
X11856065Y1903960D01*
X11853018Y1898868D01*
X11845506Y1887075D01*
X11836518Y1873800D01*
X11827696Y1860370D01*
X11820742Y1850328D01*
X11715689Y1706263D01*
X11714662Y1704865D01*
X11711132Y1700094D01*
X11702509Y1689095D01*
X11692229Y1676713D01*
X11682173Y1664251D01*
X11674275Y1654938D01*
X11555674Y1521823D01*
X11555620Y1521871D01*
X11554440Y1520526D01*
X11554479Y1520491D01*
X11550512Y1516101D01*
X11540872Y1506014D01*
X11529479Y1494740D01*
X11518208Y1483271D01*
X11509440Y1474775D01*
X11378415Y1353868D01*
X11378270Y1354025D01*
X11376986Y1352845D01*
X11377129Y1352688D01*
X11372754Y1348706D01*
X11362142Y1339578D01*
X11349662Y1329436D01*
X11337372Y1319160D01*
X11327811Y1311554D01*
X11185600Y1204001D01*
X11184191Y1202943D01*
X11179433Y1199397D01*
X11168019Y1191376D01*
X11154655Y1182531D01*
X11141378Y1173474D01*
X11131120Y1166837D01*
X10979113Y1073688D01*
X10978987Y1073893D01*
X10977488Y1072986D01*
X10977614Y1072777D01*
X10972553Y1069723D01*
X10960366Y1062827D01*
X10946175Y1055313D01*
X10932104Y1047610D01*
X10921249Y1042007D01*
X10760863Y964128D01*
X10760447Y964984D01*
X10758915Y964206D01*
X10759309Y963380D01*
X10753965Y960830D01*
X10741161Y955155D01*
X10726267Y949047D01*
X10711541Y942766D01*
X10700195Y938250D01*
X10532983Y876397D01*
X10532873Y876694D01*
X10531230Y876044D01*
X10531322Y875789D01*
X10525756Y873774D01*
X10512494Y869388D01*
X10497148Y864784D01*
X10481809Y859948D01*
X10470075Y856561D01*
X10297625Y811320D01*
X10297557Y811580D01*
X10295866Y811107D01*
X10295924Y810879D01*
X10290199Y809419D01*
X10276546Y806342D01*
X10260774Y803248D01*
X10245084Y799942D01*
X10233077Y797716D01*
X10057040Y769520D01*
X10057015Y769678D01*
X10055271Y769418D01*
X10055297Y769248D01*
X10049444Y768352D01*
X10035570Y766623D01*
X10019549Y765081D01*
X10003645Y763325D01*
X9991476Y762281D01*
X9813521Y751396D01*
X9813495Y751822D01*
X9811773Y751721D01*
X9811796Y751297D01*
X9805893Y750976D01*
X9791868Y750607D01*
X9775800Y750636D01*
X9759779Y750440D01*
X9747561Y750589D01*
X9569379Y757123D01*
X9567630Y757193D01*
X9561701Y757452D01*
X9547773Y758451D01*
X9531803Y760046D01*
X9515817Y761416D01*
X9503673Y762756D01*
X9326979Y786646D01*
X9325256Y786885D01*
X9319381Y787721D01*
X9305615Y790074D01*
X9289838Y793227D01*
X9274083Y796147D01*
X9262137Y798664D01*
X9088638Y839677D01*
X9088672Y839821D01*
X9086931Y840232D01*
X9086898Y840095D01*
X9081155Y841495D01*
X9067686Y845180D01*
X9052362Y849836D01*
X9036901Y854299D01*
X9025257Y857970D01*
X8856579Y915721D01*
X8856643Y915909D01*
X8854976Y916498D01*
X8854907Y916301D01*
X8849324Y918256D01*
X8836269Y923241D01*
X8821461Y929375D01*
X8806532Y935316D01*
X8795292Y940110D01*
X8633045Y1014051D01*
X8631484Y1014769D01*
X8626101Y1017267D01*
X8613580Y1023509D01*
X8599379Y1031092D01*
X8585160Y1038431D01*
X8574447Y1044296D01*
X8420196Y1133712D01*
X8420912Y1134946D01*
X8419392Y1135801D01*
X8418682Y1134596D01*
X8413575Y1137604D01*
X8401741Y1145027D01*
X8388385Y1153934D01*
X8374900Y1162659D01*
X8364818Y1169537D01*
X8220022Y1273583D01*
X8220023Y1273585D01*
X8218599Y1274612D01*
X8213813Y1278102D01*
X8202762Y1286644D01*
X8190371Y1296787D01*
X8177781Y1306801D01*
X8168409Y1314638D01*
X8034467Y1432310D01*
X8034956Y1432867D01*
X8033639Y1433991D01*
X8033166Y1433460D01*
X8028747Y1437396D01*
X8018553Y1447002D01*
X8007220Y1458296D01*
X7995659Y1469500D01*
X7987097Y1478213D01*
X7865280Y1608391D01*
X7865442Y1608543D01*
X7864192Y1609786D01*
X7864079Y1609682D01*
X7860062Y1614035D01*
X7850884Y1624556D01*
X7840666Y1636952D01*
X7830284Y1649194D01*
X7822619Y1658693D01*
X7714075Y1800149D01*
X7713026Y1801526D01*
X7709446Y1806259D01*
X7701324Y1817646D01*
X7692393Y1830938D01*
X7683240Y1844156D01*
X7676529Y1854371D01*
X7582318Y2005729D01*
X7582652Y2005937D01*
X7581707Y2007433D01*
X7581387Y2007237D01*
X7578297Y2012279D01*
X7571336Y2024384D01*
X7563735Y2038499D01*
X7555909Y2052562D01*
X7550237Y2063366D01*
X7471237Y2223210D01*
X7470470Y2224777D01*
X7467878Y2230115D01*
X7462130Y2242845D01*
X7455938Y2257648D01*
X7449540Y2272362D01*
X7444942Y2283684D01*
X7381916Y2450475D01*
X7381306Y2452108D01*
X7379247Y2457674D01*
X7374771Y2470898D01*
X7370043Y2486266D01*
X7365115Y2501524D01*
X7361646Y2513234D01*
X7315198Y2685379D01*
X7314751Y2687060D01*
X7313245Y2692800D01*
X7310078Y2706405D01*
X7306876Y2722142D01*
X7303459Y2737815D01*
X7301149Y2749814D01*
X7271721Y2925671D01*
X7271436Y2927411D01*
X7270498Y2933270D01*
X7268679Y2947088D01*
X7267035Y2962998D01*
X7265154Y2979011D01*
X7264027Y2991166D01*
X7251900Y3169054D01*
X7251789Y3170765D01*
X7251426Y3176688D01*
X7250961Y3190687D01*
X7250947Y3193487D01*
X7250784Y3196262D01*
X7250369Y3208471D01*
X7250032Y3243507D01*
X7250021Y3245238D01*
X7250005Y3251172D01*
X7250358Y3265146D01*
X7252567Y3306610D01*
X7255055Y3330899D01*
X7261298Y3371948D01*
X7266148Y3395896D01*
X7276369Y3436142D01*
X7283529Y3459488D01*
X7297627Y3498543D01*
X7307035Y3521090D01*
X7324878Y3558583D01*
X7336435Y3580094D01*
X7357851Y3615668D01*
X7371456Y3635953D01*
X7396241Y3669267D01*
X7411760Y3688127D01*
X7439677Y3718863D01*
X7456965Y3736123D01*
X7487749Y3763988D01*
X7506636Y3779474D01*
X7539992Y3804202D01*
X7560296Y3817770D01*
X7595906Y3839126D01*
X7617450Y3850654D01*
X7654973Y3868431D01*
X7677525Y3877795D01*
X7716605Y3891827D01*
X7739965Y3898948D01*
X7780227Y3909100D01*
X7804178Y3913908D01*
X7845239Y3920082D01*
X7869539Y3922529D01*
X7911006Y3924667D01*
X7935433Y3924732D01*
X7976912Y3922813D01*
X8001231Y3920493D01*
X8042323Y3914535D01*
X8066292Y3909854D01*
X8106607Y3899915D01*
X8130004Y3892919D01*
X8169157Y3879094D01*
X8191765Y3869845D01*
X8229382Y3852265D01*
X8250979Y3840855D01*
X8286701Y3819688D01*
X8307085Y3806222D01*
X8340571Y3781669D01*
X8359528Y3766291D01*
X8390459Y3738590D01*
X8407851Y3721410D01*
X8435929Y3690820D01*
X8451534Y3672058D01*
X8476496Y3638876D01*
X8490214Y3618654D01*
X8511817Y3583194D01*
X8523491Y3561738D01*
X8541530Y3524340D01*
X8551051Y3501856D01*
X8565356Y3462876D01*
X8572643Y3439556D01*
X8583075Y3399365D01*
X8588048Y3375456D01*
X8594509Y3334439D01*
X8597127Y3310146D01*
X8599553Y3268695D01*
X8599968Y3256488D01*
X8600115Y3241200D01*
X8608655Y3115928D01*
X8627187Y3005182D01*
X8656433Y2896792D01*
X8696123Y2791757D01*
X8745867Y2691108D01*
X8805197Y2595788D01*
X8873551Y2506709D01*
X8950254Y2424742D01*
X9034613Y2350630D01*
X9125785Y2285117D01*
X9222925Y2228807D01*
X9325098Y2182244D01*
X9431301Y2145882D01*
X9540576Y2120051D01*
X9651840Y2105007D01*
X9764040Y2100893D01*
X9876107Y2107748D01*
X9986979Y2125505D01*
X10095562Y2153993D01*
X10200867Y2192946D01*
X10301878Y2241995D01*
X10397602Y2300655D01*
X10487149Y2368379D01*
X10569666Y2444523D01*
X10644350Y2528348D01*
X10710504Y2619069D01*
X10767490Y2715810D01*
X10814760Y2817644D01*
X10851866Y2923602D01*
X10878460Y3032698D01*
X10894280Y3143856D01*
X10899178Y3256014D01*
X10893105Y3368123D01*
X10876121Y3479118D01*
X10848392Y3587904D01*
X10810172Y3693485D01*
X10761839Y3794819D01*
X10703846Y3890955D01*
X10636748Y3980975D01*
X10561178Y4064023D01*
X10477881Y4139288D01*
X10387622Y4206077D01*
X10291289Y4263730D01*
X10159929Y4325824D01*
X10158382Y4326562D01*
X10153034Y4329135D01*
X10140592Y4335556D01*
X10104242Y4355624D01*
X10083473Y4368452D01*
X10049253Y4391970D01*
X10029817Y4406776D01*
X9998056Y4433522D01*
X9980168Y4450145D01*
X9951168Y4479862D01*
X9934979Y4498160D01*
X9909018Y4530566D01*
X9894701Y4550345D01*
X9872025Y4585129D01*
X9859700Y4606220D01*
X9840527Y4643051D01*
X9830320Y4665243D01*
X9814833Y4703769D01*
X9806842Y4726846D01*
X9795188Y4766699D01*
X9789485Y4790453D01*
X9781776Y4831254D01*
X9778420Y4855445D01*
X9774729Y4896802D01*
X9773749Y4921211D01*
X9774112Y4962732D01*
X9775518Y4987116D01*
X9779931Y5028403D01*
X9783709Y5052528D01*
X9792129Y5093188D01*
X9798244Y5116834D01*
X9810591Y5156477D01*
X9818985Y5179415D01*
X9835142Y5217665D01*
X9845737Y5239680D01*
X9865551Y5276171D01*
X9878240Y5297039D01*
X9901519Y5331421D01*
X9916180Y5350948D01*
X9942703Y5382896D01*
X9959208Y5400908D01*
X9988722Y5430114D01*
X10006900Y5446424D01*
X10039123Y5472611D01*
X10058807Y5487071D01*
X10093432Y5509989D01*
X10114437Y5522461D01*
X10151133Y5541890D01*
X10173244Y5552247D01*
X10211661Y5568004D01*
X10234702Y5576163D01*
X10274474Y5588093D01*
X10298165Y5593956D01*
X10338910Y5601951D01*
X10363090Y5605479D01*
X10404422Y5609458D01*
X10428813Y5610608D01*
X10470334Y5610536D01*
G37*
D11*
X9750000Y3250000D03*
D12*
X11040000Y4540000D03*
X7925000Y3250000D03*
X8460000Y1960000D03*
X9750000Y1425000D03*
X11040000Y1960000D03*
X11575000Y3250000D03*
%TD*%
M02*
